HIERARCHY
ROOT SpineBase
{
  OFFSET 0.000000 0.000000 0.000000
  CHANNELS 6 Xposition Yposition Zposition Zrotation Xrotation Yrotation
  JOINT SpineMid
  {
    OFFSET -0.000000 28.756342 0.000000
    CHANNELS 3 Zrotation Xrotation Yrotation
    JOINT SpineShoulder
    {
      OFFSET 0.117935 21.352337 -0.892153
      CHANNELS 3 Zrotation Xrotation Yrotation
      JOINT Neck
      {
        OFFSET 0.041530 7.056637 -0.492983
        CHANNELS 3 Zrotation Xrotation Yrotation
        JOINT Head
        {
          OFFSET 2.286627 13.687934 -0.461597
          CHANNELS 3 Zrotation Xrotation Yrotation
          End Site
          {
            OFFSET 0 0 0
          }
        }
      }
      JOINT ShoulderLeft
      {
        OFFSET -13.358143 -4.153981 -6.664281
        CHANNELS 3 Zrotation Xrotation Yrotation
        JOINT ElbowLeft
        {
          OFFSET -3.701092 -23.090899 -0.557419
          CHANNELS 3 Zrotation Xrotation Yrotation
          JOINT WristLeft
          {
            OFFSET 11.376816 -16.944754 -6.874003
            CHANNELS 3 Zrotation Xrotation Yrotation
            JOINT HandLeft
            {
              OFFSET 4.208119 -5.555172 2.239540
              CHANNELS 3 Zrotation Xrotation Yrotation
              JOINT HandTipLeft
              {
                OFFSET 6.934678 -7.183360 -3.879984
                CHANNELS 3 Zrotation Xrotation Yrotation
                End Site
                {
                  OFFSET 0 0 0
                }
              }
              JOINT ThumbLeft
              {
                OFFSET 4.696338 6.275938 -3.108960
                CHANNELS 3 Zrotation Xrotation Yrotation
                End Site
                {
                  OFFSET 0 0 0
                }
              }
            }
          }
        }
      }
      JOINT ShoulderRight
      {
        OFFSET 16.967947 -4.157554 6.117512
        CHANNELS 3 Zrotation Xrotation Yrotation
        JOINT ElbowRight
        {
          OFFSET 2.744177 -26.101708 0.755993
          CHANNELS 3 Zrotation Xrotation Yrotation
          JOINT WristRight
          {
            OFFSET 1.724783 -19.002774 -10.295510
            CHANNELS 3 Zrotation Xrotation Yrotation
            JOINT HandRight
            {
              OFFSET -3.114251 -2.249071 -9.216427
              CHANNELS 3 Zrotation Xrotation Yrotation
              JOINT HandTipRight
              {
                OFFSET -2.212280 -5.321724 -6.093363
                CHANNELS 3 Zrotation Xrotation Yrotation
                End Site
                {
                  OFFSET 0 0 0
                }
              }
              JOINT ThumbRight
              {
                OFFSET -2.785688 3.014630 -2.605165
                CHANNELS 3 Zrotation Xrotation Yrotation
                End Site
                {
                  OFFSET 0 0 0
                }
              }
            }
          }
        }
      }
    }
  }
  JOINT HipLeft
  {
    OFFSET -6.472189 0.376730 -5.780184
    CHANNELS 3 Zrotation Xrotation Yrotation
    JOINT KneeLeft
    {
      OFFSET -4.390794 -29.460848 5.380289
      CHANNELS 3 Zrotation Xrotation Yrotation
      JOINT AnkleLeft
      {
        OFFSET -3.808262 -39.271489 8.606499
        CHANNELS 3 Zrotation Xrotation Yrotation
        JOINT FootLeft
        {
          OFFSET 3.167543 -1.399542 -10.194156
          CHANNELS 3 Zrotation Xrotation Yrotation
          End Site
          {
            OFFSET 0 0 0
          }
        }
      }
    }
  }
  JOINT HipRight
  {
    OFFSET 5.880796 0.171738 -0.885960
    CHANNELS 3 Zrotation Xrotation Yrotation
    JOINT KneeRight
    {
      OFFSET 10.410427 -22.867316 -18.509192
      CHANNELS 3 Zrotation Xrotation Yrotation
      JOINT AnkleRight
      {
        OFFSET -10.442889 -32.971905 41.460378
        CHANNELS 3 Zrotation Xrotation Yrotation
        JOINT FootRight
        {
          OFFSET 1.553960 -7.057862 -1.986221
          CHANNELS 3 Zrotation Xrotation Yrotation
          End Site
          {
            OFFSET 0 0 0
          }
        }
      }
    }
  }
}
MOTION
Frames: 14
Frame Time: 0.033333
36.069866 72.847354 377.737939 0.000000 0.000000 -21.613356 -0.000000 -0.000000 21.613356 -0.000000 0.000000 0.000000 -0.000000 0.000000 0.000000 0.000000 0.000000 0.000000 -0.000000 0.000000 0.000000 -0.000000 0.000000 0.000000 -0.000000 0.000000 0.000000 -0.000000 0.000000 0.000000 0.000000 0.000000 0.000000 0.000000 0.000000 0.000000 -0.000000 0.000000 0.000000 -0.000000 0.000000 0.000000 -0.000000 0.000000 0.000000 -0.000000 0.000000 0.000000 0.000000 0.000000 0.000000 0.000000 0.000000 0.000000 -0.000000 -0.000000 21.613356 -0.000000 0.000000 0.000000 -0.000000 0.000000 0.000000 0.000000 0.000000 0.000000 -0.000000 -0.000000 21.613356 -0.000000 0.000000 0.000000 -0.000000 0.000000 0.000000 0.000000 0.000000 0.000000
36.199718 72.855673 377.535665 0.005581 0.278222 -22.101146 0.099509 -0.259878 22.101358 -0.000000 0.000000 0.000000 -0.000000 0.000000 0.000000 0.000000 0.000000 0.000000 -0.000000 0.000000 0.000000 -0.000000 0.000000 0.000000 0.916491 -0.331276 0.120320 -2.152018 1.081974 1.298983 0.000000 0.000000 0.000000 0.000000 0.000000 0.000000 -0.000000 0.000000 0.000000 -0.000000 0.000000 0.000000 -0.000000 0.000000 0.000000 -0.000000 0.000000 0.000000 0.000000 0.000000 0.000000 0.000000 0.000000 0.000000 0.099509 -0.259878 22.101358 -0.000000 0.000000 0.000000 0.443614 0.999469 -0.907387 0.000000 0.000000 0.000000 0.172211 1.031708 22.184481 -0.555092 -1.168502 -0.089273 1.996242 7.252980 0.891349 0.000000 0.000000 0.000000
36.319489 72.861005 377.404129 -0.022571 0.462552 -22.453689 0.197529 -0.418864 22.454502 -0.000000 0.000000 0.000000 -0.000000 0.000000 0.000000 0.000000 0.000000 0.000000 -0.000000 0.000000 0.000000 -0.000000 0.000000 0.000000 1.490628 -0.358647 0.330285 -3.761802 1.923235 2.480112 0.000000 0.000000 0.000000 0.000000 0.000000 0.000000 -0.000000 0.000000 0.000000 0.757113 0.866942 -0.335663 -0.591133 -1.865190 1.098108 0.843590 0.357439 -1.667108 0.000000 0.000000 0.000000 0.000000 0.000000 0.000000 0.594148 -1.136064 22.597987 -0.090588 0.814522 -0.137459 0.868285 1.993017 -1.598493 0.000000 0.000000 0.000000 0.250218 2.051639 22.676450 -0.670615 -1.040157 -0.209412 3.548956 13.419688 1.634687 0.000000 0.000000 0.000000
36.429178 72.863348 377.343333 -0.084363 0.553327 -22.670305 0.291120 -0.478057 22.671927 -0.000000 0.000000 0.000000 -0.000000 0.000000 0.000000 0.000000 0.000000 0.000000 -0.335624 0.888080 -0.131558 -0.357613 -0.703953 0.534553 2.430575 -0.294476 0.224317 -4.830125 2.539837 3.507850 0.000000 0.000000 0.000000 0.000000 0.000000 0.000000 -0.000000 0.000000 0.000000 0.863916 1.143155 -0.370669 -0.620680 -2.587502 1.486884 1.185601 0.344185 -2.327022 0.000000 0.000000 0.000000 0.000000 0.000000 0.000000 0.828883 -1.373133 22.861927 -1.000706 1.128903 -0.359714 2.110552 2.896550 -1.872168 0.000000 0.000000 0.000000 0.237698 3.053802 23.092328 -0.844985 -1.545849 -0.380775 5.137699 20.135640 2.165537 0.000000 0.000000 0.000000
36.528787 72.862704 377.353275 -0.179722 0.550828 -22.751339 0.033337 0.344197 22.747980 0.015929 -0.855347 0.005507 -0.000000 0.000000 0.000000 0.000000 0.000000 0.000000 -0.572959 1.005984 -0.142241 -0.298343 -0.946958 0.533907 2.540708 0.385200 0.611306 -5.354023 2.937112 4.356569 0.000000 0.000000 0.000000 0.000000 0.000000 0.000000 -0.000000 0.000000 0.000000 0.788798 1.315880 -0.314831 -0.476148 -3.179530 1.777595 1.455178 0.216293 -2.856206 0.000000 0.000000 0.000000 0.000000 0.000000 0.000000 1.016836 -1.397088 22.971811 -1.252951 1.262467 -0.424186 2.658469 3.851663 -2.077466 0.000000 0.000000 0.000000 0.138149 4.033315 23.436467 -0.907899 -2.040346 -0.594891 6.584071 26.500611 2.504836 0.000000 0.000000 0.000000
36.618316 72.859072 377.433956 -0.308591 0.455280 -22.698089 -0.014943 0.456253 22.690181 0.146471 -0.881932 0.012115 -0.000000 0.000000 0.000000 0.000000 0.000000 0.000000 -0.873319 1.032220 -0.136307 -0.150132 -1.190960 0.444195 2.302810 1.451311 1.163442 -5.327910 3.108954 5.010399 0.000000 0.000000 0.000000 0.000000 0.000000 0.000000 -0.000000 0.000000 0.000000 0.531384 1.384819 -0.167457 -0.158743 -3.648007 1.974572 1.640725 -0.014153 -3.246276 0.000000 0.000000 0.000000 0.000000 0.000000 0.000000 1.157740 -1.211528 22.928030 -1.464909 1.278134 -0.464757 3.119002 4.803044 -2.070641 0.000000 0.000000 0.000000 -0.045338 4.986187 23.714483 -0.855983 -2.522803 -0.851234 7.891183 32.342400 2.669622 0.000000 0.000000 0.000000
36.746420 72.867863 377.539451 -0.337072 0.290803 -22.037877 -0.088293 0.572260 22.027915 0.204372 -0.854332 0.014777 -0.000000 0.000000 0.000000 0.000000 0.000000 0.000000 -0.926806 0.869142 -0.109746 -0.139183 -1.242714 0.288279 1.159375 3.352060 2.124268 -4.150577 2.819245 5.433589 0.000000 0.000000 0.000000 0.000000 0.000000 0.000000 -0.000000 0.000000 0.000000 0.066505 1.233723 0.074795 0.502186 -4.569261 2.549412 2.126225 -1.307584 -3.974693 0.000000 0.000000 0.000000 0.000000 0.000000 0.000000 1.064479 -0.930202 22.244630 -1.557452 1.116202 -0.463496 3.505739 5.868045 -1.894352 0.000000 0.000000 0.000000 -0.195750 7.283030 23.442840 -1.216525 -3.347023 -1.220616 10.315549 45.546796 3.107643 0.000000 0.000000 0.000000
36.620905 72.858616 377.590897 -0.559261 0.091756 -21.153673 -0.261245 0.750880 21.132606 -0.341506 -0.547808 -0.042727 0.874002 -0.337663 0.065612 0.000000 0.000000 0.000000 -0.727501 0.155725 0.022443 0.538760 -1.036543 0.101287 -0.012536 4.938037 2.941875 -3.348127 1.867878 5.368450 0.000000 0.000000 0.000000 0.000000 0.000000 0.000000 0.874002 -0.337663 0.065612 -0.000000 0.000000 0.000000 0.891537 -3.831661 1.975919 1.355384 -0.796026 -2.715887 0.000000 0.000000 0.000000 0.000000 0.000000 0.000000 1.564465 -0.490222 21.427335 -2.042836 1.132311 -0.549630 3.838156 6.917753 -1.464674 0.000000 0.000000 0.000000 0.128983 9.183534 22.673093 -1.660143 -4.090614 -1.290674 11.767080 51.869798 2.879988 0.000000 0.000000 0.000000
36.719674 72.839652 378.049278 -0.802202 -0.497571 -20.809201 0.573161 0.750062 20.801966 -0.726240 -0.406667 -0.050906 0.725897 0.407280 0.045749 0.000000 0.000000 0.000000 -1.811015 0.432399 0.120972 0.928157 -0.666785 0.160578 -0.817597 5.214520 2.454556 -1.015357 3.290989 6.911495 0.000000 0.000000 0.000000 0.000000 0.000000 0.000000 -0.404356 1.447641 0.140934 -0.766963 -1.604453 0.868369 2.708003 -3.647663 1.625730 0.197355 0.283404 -2.187477 0.000000 0.000000 0.000000 0.000000 0.000000 0.000000 1.443431 0.685988 20.990538 -2.102110 0.561240 -0.491773 3.901267 7.690610 -0.673953 0.000000 0.000000 0.000000 -1.328647 9.756867 23.760072 -0.192061 -5.060343 -2.089418 11.840601 51.630042 2.294998 0.000000 0.000000 0.000000
37.001931 72.890935 378.519594 -0.959887 -1.033583 -21.859067 -0.475806 1.044242 21.821890 -0.549352 -0.699142 -0.072799 0.075367 0.051594 0.145026 0.000000 0.000000 0.000000 -2.572182 0.710672 0.222979 2.629779 -1.102432 -0.131388 -1.658842 6.385128 3.192136 0.374250 2.841612 6.544768 0.000000 0.000000 0.000000 0.000000 0.000000 0.000000 -0.591388 1.991192 0.231972 -0.452937 -0.191365 1.418856 3.168012 -5.921997 2.749034 -0.400725 2.373604 -3.375515 0.000000 0.000000 0.000000 0.000000 0.000000 0.000000 0.506218 1.316574 21.844592 -1.167576 0.446019 -0.294555 3.590605 7.789399 0.628244 0.000000 0.000000 0.000000 -3.404653 6.683659 26.195166 2.617851 -4.723654 -2.773532 13.109799 46.789350 0.184250 0.000000 0.000000 0.000000
37.327188 73.042474 379.148198 -1.498932 -1.438511 -25.021369 -0.832945 1.022178 24.955545 -0.664035 -0.618015 -0.106282 0.709497 0.035576 0.228902 0.000000 0.000000 0.000000 -3.643199 0.983190 0.358384 4.513143 -2.391058 -0.950408 -2.766009 9.289394 5.176965 1.273900 1.176890 5.776115 0.000000 0.000000 0.000000 0.000000 0.000000 0.000000 -1.631326 1.402669 0.177672 1.543561 3.532639 1.876622 1.457636 -6.363085 5.454243 1.205966 0.740520 -6.899022 0.000000 0.000000 0.000000 0.000000 0.000000 0.000000 0.750397 1.937203 24.989863 -1.081645 1.236701 -0.345811 2.941071 5.727460 1.609728 0.000000 0.000000 0.000000 -3.750432 11.172255 29.954908 -0.075345 -9.728783 -3.863479 11.034650 38.454938 1.030997 0.000000 0.000000 0.000000
37.537380 72.623806 380.600662 -2.648719 -2.610356 -27.351525 -0.975802 1.270916 27.228173 -0.807256 -0.251001 -0.137634 -1.101925 2.465198 0.010602 0.000000 0.000000 0.000000 -2.312967 2.313861 0.380114 2.964489 -6.604271 -2.718493 -2.560478 15.935078 9.954738 -1.600696 -3.258052 3.433393 0.000000 0.000000 0.000000 0.000000 0.000000 0.000000 -3.200694 0.254562 -0.004308 3.173201 10.531776 3.371532 1.455726 -11.581309 7.283883 0.906563 -0.366850 -8.340453 0.000000 0.000000 0.000000 0.000000 0.000000 0.000000 0.373387 4.959414 27.063260 -0.604205 0.101729 -0.067557 2.416669 6.064098 3.186607 0.000000 0.000000 0.000000 -3.144192 11.435943 31.768985 -0.490444 -8.963978 -3.990121 10.329386 26.248638 0.509286 0.000000 0.000000 0.000000
37.619925 71.984936 382.569744 -4.182942 -3.903388 -29.024096 -1.121063 1.662165 28.805286 -0.785989 -0.022511 -0.164040 -4.586788 5.742878 -0.049229 0.000000 0.000000 0.000000 1.854457 4.019808 0.176848 -0.480997 -12.211270 -5.779977 -7.894214 24.604344 17.841667 -0.427781 -9.799928 -0.292449 0.000000 0.000000 0.000000 0.000000 0.000000 0.000000 -5.029560 -1.450940 -0.349412 6.642654 16.977182 3.834708 1.933767 -17.999635 6.744804 2.459845 -2.867518 -9.471032 0.000000 0.000000 0.000000 0.000000 0.000000 0.000000 -1.461882 9.545458 28.296074 0.652309 -3.179443 0.707830 2.039946 7.232701 4.681355 0.000000 0.000000 0.000000 -1.143118 7.859708 31.791422 1.663896 -1.416765 -2.838314 8.742636 10.586061 -0.191926 0.000000 0.000000 0.000000
37.566818 71.331676 384.876494 -5.881947 -5.327175 -29.663695 -1.163284 2.171215 29.308579 -0.595918 -0.131204 -0.195042 -9.644667 10.273131 0.369809 0.000000 0.000000 0.000000 7.521585 6.670700 -0.445129 -4.969504 -18.852742 -9.581998 -15.209667 30.943706 26.535790 -0.038368 -18.931110 -7.881911 0.000000 0.000000 0.000000 0.000000 0.000000 0.000000 -6.945584 -3.008844 -0.767045 11.892153 21.982282 2.642683 3.667956 -27.401449 5.575434 4.747818 -1.435284 -11.460142 0.000000 0.000000 0.000000 0.000000 0.000000 0.000000 -4.043821 15.507970 28.707961 1.906394 -8.104221 1.812807 1.965323 7.973300 4.722534 0.000000 0.000000 0.000000 1.832298 0.685958 29.922386 4.976466 10.578686 -1.485192 7.280083 -2.998020 -0.798947 0.000000 0.000000 0.000000
